<?xml version="1.0" encoding="UTF-8"?>
<svg width="69px" height="58px" viewBox="0 0 69 58" version="1.1" xmlns="https://www.w3.org/2000/svg" xmlns:xlink="https://www.w3.org/1999/xlink">
    <!-- Generator: Sketch 52.6 (67491) - https://www.bohemiancoding.com/sketch -->
    <title>Path</title>
    <desc>Created with Sketch.</desc>
    <g id="Page-1" stroke="none" stroke-width="1" fill="none" fill-rule="evenodd">
        <g id="comb" transform="translate(-1.000000, -1.000000)" fill="#AAAC4C">
            <path d="M69.07,16 L59.9,6.81 L60,6.72 L55.79,2 C53,-0.26 49.86,2 49.86,2 C49.86,2 8.49,43 6.39,45.39 C4.29,47.78 -2.34,55.24 3.07,57.69 C8.48,60.14 17.22,54 21.41,44.08 C23.5759605,38.6309224 28.1017314,34.4620618 33.71,32.75 L43,42 C43.5522848,42.5522847 44.4477152,42.5522847 44.9999999,41.9999999 C45.5522847,41.4477152 45.5522847,40.5522848 45,40 L36,31 L38,29 L47,38 C47.5522848,38.5522847 48.4477152,38.5522847 49,38 C49.5522847,37.4477152 49.5522847,36.5522848 49,36 L40,27 L42,25 L51,34 C51.5522847,34.5522847 52.4477153,34.5522847 53,34 C53.5522847,33.4477153 53.5522847,32.5522847 53,32 L43.94,23 L45.94,20.95 L55,30 C55.5522848,30.5522847 56.4477152,30.5522847 57,30 C57.5522847,29.4477152 57.5522847,28.5522848 57,28 L47.91,18.91 L49.91,16.86 L59.06,26 C59.4172656,26.3572656 59.9379915,26.4967938 60.4260254,26.3660255 C60.9140593,26.2352572 61.2952572,25.8540593 61.4260255,25.3660254 C61.5567938,24.8779915 61.4172656,24.3572656 61.06,24 L51.94,14.88 L53.94,12.83 L63.08,22 C63.6322848,22.5522847 64.5277152,22.5522847 65.08,22 C65.6322847,21.4477152 65.6322847,20.5522848 65.08,20 L55.91,10.85 L57.91,8.8 L67.09,18 C67.6422848,18.5522847 68.5377152,18.5522847 69.09,18 C69.6422847,17.4477152 69.6422847,16.5522848 69.09,16 L69.07,16 Z" id="Path"></path>
        </g>
    </g>
</svg>