<?xml version="1.0" encoding="UTF-8"?>
<svg width="59px" height="50px" viewBox="0 0 59 50" version="1.1" xmlns="http://www.w3.org/2000/svg" xmlns:xlink="http://www.w3.org/1999/xlink">
    <!-- Generator: Sketch 52.6 (67491) - https://www.bohemiancoding.com/sketch -->
    <title>drier1</title>
    <desc>Created with Sketch.</desc>
    <g id="Page-1" stroke="none" stroke-width="1" fill="none" fill-rule="evenodd">
        <g id="drier1" transform="translate(-1.000000, 0.000000)" fill="#AAAC4C">
            <path d="M16.17,3 C17.3102542,3.00159724 18.4446451,3.1631722 19.54,3.48 L21.91,4.16 L41.82,9.76 L41.82,20.6 L23.71,25.7 L21.79,26.24 L21.54,28.24 L21.07,31.97 L16.24,35 L14.86,35.89 L14.86,46.61 L7.44,46.61 C6.44,44.74 4.97,40.19 6.82,36.5 C8.27899661,33.4358456 9.08602231,30.1021825 9.19,26.71 L9.25,25.27 L8.17,24.32 C4.36317592,20.9816168 3.02103142,15.6349839 4.79983916,10.8944612 C6.5786469,6.15393859 11.1067391,3.01002107 16.17,3 Z M16.17,23.74 C20.9030803,23.74 24.74,19.9030803 24.74,15.17 C24.74,10.4369197 20.9030803,6.6 16.17,6.6 C11.4369197,6.6 7.6,10.4369197 7.6,15.17 C7.60551054,19.9007959 11.4392041,23.7344895 16.17,23.74 Z M16.17,6.66133815e-16 C9.84646421,-0.005999715 4.18249926,3.91118614 1.95654699,9.82999323 C-0.269405275,15.7488003 1.40962727,22.4275497 6.17,26.59 C6.08689819,29.5588549 5.38528223,32.4777136 4.11,35.16 C1.22,40.94 4.26,48.16 5.94,49.61 L17.86,49.61 L17.86,37.61 L23.86,33.76 L24.5,28.63 L44.81,22.92 L44.81,7.47 L20.38,0.59 C19.0113158,0.196703061 17.59407,-0.00191334029 16.17,6.66133815e-16 Z M16.17,20.74 C13.0937739,20.74 10.6,18.2462261 10.6,15.17 C10.6,12.0937739 13.0937739,9.6 16.17,9.6 C19.2462261,9.6 21.74,12.0937739 21.74,15.17 C21.74,18.2462261 19.2462261,20.74 16.17,20.74 Z" id="Shape" fill-rule="nonzero"></path>
            <path d="M50.65,11.63 C49.5132596,11.6932492 48.3896636,11.3611171 47.47,10.69 L49.06,8.84 C49.11,8.84 50.39,9.78 53.41,8.65 C58.03,6.92 59.73,9.17 59.9,9.43 L57.9,10.81 L57.9,10.86 C57.9,10.86 57.02,9.86 54.24,10.94 C53.0945898,11.3841059 51.8784328,11.6178519 50.65,11.63 Z" id="Path"></path>
            <path d="M50.65,17 C49.5060417,17.0460209 48.3817304,16.6924639 47.47,16 L49.06,14.15 C49.11,14.15 50.39,15.09 53.41,13.96 C58.03,12.23 59.73,14.48 59.9,14.74 L57.9,16.12 L57.9,16.17 C57.9,16.17 57.02,15.17 54.24,16.25 C53.098347,16.7144267 51.8821009,16.9685171 50.65,17 Z" id="Path"></path>
            <path d="M50.65,22.33 C49.5132596,22.3932492 48.3896636,22.0611171 47.47,21.39 L49.06,19.54 C49.11,19.54 50.39,20.48 53.41,19.35 C58.03,17.62 59.73,19.86 59.9,20.13 L57.9,21.51 L57.9,21.56 C57.9,21.56 57.02,20.56 54.24,21.64 C53.0945898,22.0841059 51.8784328,22.3178519 50.65,22.33 Z" id="Path"></path>
        </g>
    </g>
</svg>