<?xml version="1.0" encoding="UTF-8"?>
<svg width="75px" height="91px" viewBox="0 0 75 91" version="1.1" xmlns="http://www.w3.org/2000/svg" xmlns:xlink="http://www.w3.org/1999/xlink">
    <!-- Generator: Sketch 52.6 (67491) - http://www.bohemiancoding.com/sketch -->
    <title>scessior</title>
    <desc>Created with Sketch.</desc>
    <g id="Page-1" stroke="none" stroke-width="1" fill="none" fill-rule="evenodd">
        <g id="scessior" fill="#AAAC4C">
            <path d="M36.22,79.91 C30.98,77.91 28.56,71.44 30.83,65.47 C33.1,59.5 39.21,56.28 44.45,58.28 C49.69,60.28 52.11,66.75 49.84,72.72 C47.57,78.69 41.46,81.91 36.22,79.91 Z M43.29,61.36 C39.75,60.01 35.55,62.36 33.92,66.65 C32.29,70.94 33.86,75.48 37.4,76.83 C40.94,78.18 45.14,75.83 46.77,71.54 C48.4,67.25 46.83,62.71 43.28,61.36 L43.29,61.36 Z" id="Shape" fill-rule="nonzero"></path>
            <path d="M3.09,60.63 C-1.09,56.89 -1,50 3.23,45.22 C7.46,40.44 14.35,39.64 18.53,43.38 C22.71,47.12 22.65,54 18.39,58.79 C14.13,63.58 7.27,64.37 3.09,60.63 Z M16.33,45.84 C13.51,43.31 8.73,44 5.69,47.42 C2.65,50.84 2.47,55.64 5.29,58.17 C8.11,60.7 12.89,59.99 15.93,56.59 C18.97,53.19 19.16,48.37 16.33,45.84 Z" id="Shape" fill-rule="nonzero"></path>
            <path d="M21.84,47.55 C25.69,44.45 32.34,41.78 36.59,40.43 C37.1,37.19 35.36,35.09 35.41,33.6 C34.58,34.3 33.84,34.91 33.22,35.4 C24.02,42.68 11.22,41.72 11.22,41.72 L17,44.41 L20,49.33 C20,48.52 15.92,52.31 21.84,47.55 Z" id="Path"></path>
            <path d="M39.07,59.88 L38.44,59.88 C38.6248976,60.0252103 38.8851024,60.0252103 39.07,59.88 Z" id="Path"></path>
            <path d="M49.62,72.63 C47.5505725,75.1020011 46.1035175,78.0338305 45.4,81.18 C44.59,85.83 47.31,90.44 47.31,90.44 L42.31,88.54 L37.91,79.29 L42.65,78.18 L49.62,72.63 Z" id="Path"></path>
            <polygon id="Path" points="19.84 55.57 21.52 57.07 16.55 62.63 14.43 60.74"></polygon>
            <path d="M47.43,38.19 C59.23,29.43 74.33,17 74.33,17 L50.12,26.42 L47.43,38.19 Z" id="Path"></path>
            <path d="M45.37,41.75 C47.61,30.23 55,0 55,0 L36.8,32.21 C36.8,32.21 42.18,45.8 39.8,57.43 C39.58,58.5 39.43,59.29 39.32,59.89 L44.8,60.25 L49.8,64.18 C49.8,64.18 43.13,53.26 45.37,41.75 Z M41.62,33.88 C40.6510546,33.5092399 40.1655954,32.4236619 40.5352495,31.454294 C40.9049036,30.4849261 41.989927,29.9982284 42.9597161,30.3667761 C43.9295052,30.7353237 44.4174407,31.819791 44.05,32.79 C43.8730113,33.25733 43.517246,33.6349661 43.0612931,33.8394882 C42.6053402,34.0440103 42.0867213,34.0585876 41.62,33.88 Z" id="Shape" fill-rule="nonzero"></path>
            <path d="" id="Path"></path>
            <path d="M39.07,59.88 L39.2,59.88 C39.1625776,59.8479912 39.1074224,59.8479912 39.07,59.88 Z" id="Path"></path>
            <path d="M39.28,60.17 L39.33,59.89 L39.2,59.89 C39.256285,59.9722072 39.284359,60.070466 39.28,60.17 Z" id="Path"></path>
        </g>
    </g>
</svg>