<?xml version="1.0" encoding="UTF-8"?>
<svg width="64px" height="64px" viewBox="0 0 64 64" version="1.1" xmlns="http://www.w3.org/2000/svg" xmlns:xlink="http://www.w3.org/1999/xlink">
    <!-- Generator: Sketch 52.6 (67491) - http://www.bohemiancoding.com/sketch -->
    <title>time</title>
    <desc>Created with Sketch.</desc>
    <g id="Page-1" stroke="none" stroke-width="1" fill="none" fill-rule="evenodd">
        <g id="time" transform="translate(-1.000000, -1.000000)" fill="#AAAC4C">
            <path d="M32.81,64.61 C19.9431467,64.6140449 8.34099774,56.8663523 3.41426316,44.9800907 C-1.51247141,33.0938291 1.20658827,19.4101411 10.3033975,10.3104712 C19.4002067,1.21080139 33.0830391,-1.51256053 44.9708492,3.41043657 C56.8586592,8.33343367 64.6099994,19.9331461 64.61,32.8 C64.593471,50.3574235 50.3674174,64.5879507 32.81,64.61 Z M32.81,4.79 C17.346027,4.79 4.81,17.326027 4.81,32.79 C4.81,48.253973 17.346027,60.79 32.81,60.79 C48.273973,60.79 60.81,48.253973 60.81,32.79 C60.81,25.3639383 57.8600085,18.2420287 52.6089899,12.9910101 C47.3579713,7.73999153 40.2360617,4.79 32.81,4.79 Z" id="Shape" fill-rule="nonzero"></path>
            <circle id="Oval" cx="32.81" cy="32.81" r="3.03"></circle>
            <rect id="Rectangle" x="30.83" y="6.83" width="4.23" height="6.36" rx="1.52"></rect>
            <path d="M29.81,36.71 C29.678432,36.7095333 29.5474306,36.6927383 29.42,36.66 C29.0318903,36.5535408 28.7013537,36.2984528 28.5,35.95 L27.91,34.95 C27.7075795,34.6001107 27.6528643,34.1840038 27.7579517,33.7936793 C27.863039,33.4033547 28.1192726,33.0709649 28.47,32.87 L42.47,24.79 C42.8198893,24.5875795 43.2359962,24.5328643 43.6263207,24.6379517 C44.0166453,24.743039 44.3490351,24.9992726 44.55,25.35 L45.14,26.35 C45.3424205,26.6998893 45.3971357,27.1159962 45.2920483,27.5063207 C45.186961,27.8966453 44.9307274,28.2290351 44.58,28.43 L30.58,36.52 C30.3446699,36.6503581 30.0789581,36.7159234 29.81,36.71 Z" id="Path"></path>
            <rect id="Rectangle" x="52.42" y="30.69" width="6.36" height="4.23" rx="1.52"></rect>
            <rect id="Rectangle" x="30.75" y="52.5" width="4.23" height="6.36" rx="1.52"></rect>
            <rect id="Rectangle" x="6.83" y="30.83" width="6.36" height="4.23" rx="1.52"></rect>
            <path d="M34.82,38.26 C34.688432,38.2595333 34.5574306,38.2427383 34.43,38.21 C34.0413962,38.1045336 33.7105186,37.8491824 33.51,37.5 L23.9,20.87 C23.6975795,20.5201107 23.6428643,20.1040038 23.7479517,19.7136793 C23.853039,19.3233547 24.1092726,18.9909649 24.46,18.79 L25.46,18.2 C25.8098893,17.9975795 26.2259962,17.9428643 26.6163207,18.0479517 C27.0066453,18.153039 27.3390351,18.4092726 27.54,18.76 L37.15,35.39 C37.3524205,35.7398893 37.4071357,36.1559962 37.3020483,36.5463207 C37.196961,36.9366453 36.9407274,37.2690351 36.59,37.47 L35.59,38.07 C35.3546699,38.2003581 35.0889581,38.2659234 34.82,38.26 Z" id="Path"></path>
        </g>
    </g>
</svg>